<svg viewBox="0 0 64 64" xmlns="http://www.w3.org/2000/svg" id="Crystal-Ball-1--Streamline-Emoji.svg" height="64" width="64"><desc>Crystal Ball 1 Streamline Emoji: https://streamlinehq.com</desc><path d="M12.5972 61.22866666666667C12.5972 62.8268 28.743066666666667 63.82546666666667 41.659866666666666 63.02653333333333C47.65453333333333 62.65573333333333 51.34746666666666 61.9704 51.34746666666666 61.22866666666667C51.34746666666666 59.63066666666666 35.20146666666666 58.63186666666667 22.284799999999997 59.43093333333333C16.29013333333333 59.80173333333333 12.5972 60.487066666666664 12.5972 61.22866666666667Z" fill="#45413c" opacity=".15" stroke-width="1"></path><path d="M45.8116 48.98093333333333C41.46253333333333 50.95493333333333 36.748266666666666 51.99666666666667 31.972266666666663 52.03933333333333C27.196266666666666 51.99666666666667 22.48213333333333 50.95493333333333 18.132933333333334 48.98093333333333C27.2808 47.61533333333333 36.580799999999996 47.61533333333333 45.72866666666667 48.98093333333333Z" fill="#915e3a" stroke="#45413c" stroke-linecap="round" stroke-linejoin="round" stroke-width="1"></path><path d="M49.0916 55.59613333333333C49.56373333333333 56.54533333333333 49.233599999999996 57.69799999999999 48.3304 58.2532C45.894666666666666 59.76173333333333 40.56653333333333 62.266666666666666 31.972266666666663 62.266666666666666S18.049866666666667 59.76173333333333 15.614133333333331 58.2532C14.711066666666667 57.69799999999999 14.3808 56.54533333333333 14.853066666666665 55.59613333333333L18.132933333333334 48.98093333333333C22.48213333333333 50.95493333333333 27.196266666666666 51.99666666666667 31.972266666666663 52.03933333333333C36.748266666666666 51.99666666666667 41.46253333333333 50.95493333333333 45.8116 48.98093333333333Z" fill="#dea47a" stroke-width="1"></path><path d="M31.972266666666663 55.775999999999996C37.354933333333335 55.714666666666666 42.68866666666666 54.74613333333333 47.7492 52.91133333333333L45.8116 48.98093333333333C41.46253333333333 50.95493333333333 36.748266666666666 51.99666666666667 31.972266666666663 52.03933333333333C27.196266666666666 51.99666666666667 22.48213333333333 50.95493333333333 18.132933333333334 48.98093333333333L16.195466666666665 52.91133333333333C21.256 54.74613333333333 26.58973333333333 55.714666666666666 31.972266666666663 55.775999999999996Z" fill="#bf8256" stroke-width="1"></path><path d="M49.0916 55.59613333333333C49.56373333333333 56.54533333333333 49.233599999999996 57.69799999999999 48.3304 58.2532C45.894666666666666 59.76173333333333 40.56653333333333 62.266666666666666 31.972266666666663 62.266666666666666S18.049866666666667 59.76173333333333 15.614133333333331 58.2532C14.711066666666667 57.69799999999999 14.3808 56.54533333333333 14.853066666666665 55.59613333333333L18.132933333333334 48.98093333333333C22.48213333333333 50.95493333333333 27.196266666666666 51.99666666666667 31.972266666666663 52.03933333333333C36.748266666666666 51.99666666666667 41.46253333333333 50.95493333333333 45.8116 48.98093333333333Z" fill="none" stroke="#45413c" stroke-linecap="round" stroke-linejoin="round" stroke-width="1"></path><path d="M11.005733333333334 28.014266666666664C10.992799999999999 44.154399999999995 28.456933333333332 54.25586666666666 42.441066666666664 46.196933333333334C48.9416 42.4508 52.94493333333333 35.51693333333333 52.93893333333333 28.014266666666664C52.95173333333333 11.874133333333333 35.4876 1.7726666666666664 21.503466666666668 9.8316C15.003066666666665 13.577733333333331 10.999733333333333 20.511733333333332 11.005733333333334 28.014266666666664Z" fill="#bf8df2" stroke-width="1"></path><path d="M31.972266666666663 7.0476C15.832133333333333 7.0476 5.744666666666667 24.519866666666665 13.814666666666668 38.4976C21.884666666666664 52.475333333333325 42.059866666666665 52.475333333333325 50.129866666666665 38.4976C51.97013333333334 35.310266666666664 52.93893333333333 31.694666666666667 52.93893333333333 28.014266666666664C52.93893333333333 16.434666666666665 43.55186666666666 7.0476 31.972266666666663 7.0476ZM31.972266666666663 41.3C18.985599999999998 41.3 10.868933333333333 27.2416 17.362266666666663 15.9948C23.8556 4.747999999999999 40.08893333333333 4.747999999999999 46.58226666666667 15.9948C48.062933333333326 18.55933333333333 48.842533333333336 21.468533333333333 48.842533333333336 24.429866666666662C48.842533333333336 33.74706666666667 41.28946666666666 41.3 31.972266666666663 41.3Z" fill="#9f5ae5" stroke-width="1"></path><path d="M11.005733333333334 28.014266666666664C10.992799999999999 44.154399999999995 28.456933333333332 54.25586666666666 42.441066666666664 46.196933333333334C48.9416 42.4508 52.94493333333333 35.51693333333333 52.93893333333333 28.014266666666664C52.95173333333333 11.874133333333333 35.4876 1.7726666666666664 21.503466666666668 9.8316C15.003066666666665 13.577733333333331 10.999733333333333 20.511733333333332 11.005733333333334 28.014266666666664Z" fill="none" stroke="#45413c" stroke-linecap="round" stroke-linejoin="round" stroke-width="1"></path><path d="M35.044666666666664 20.859333333333332C35.044666666666664 24.790533333333332 39.300266666666666 27.247466666666668 42.70466666666667 25.281866666666666C44.2848 24.3696 45.25813333333333 22.68373333333333 45.25813333333333 20.859333333333332C45.25813333333333 16.92813333333333 41.00253333333333 14.4712 37.598 16.436799999999998C36.018 17.34893333333333 35.044666666666664 19.034799999999997 35.044666666666664 20.859333333333332Z" fill="#dabff5" stroke-width="1"></path><path d="M28.9 23.405733333333334C28.89653333333333 24.588266666666662 30.1744 25.3312 31.200266666666668 24.742933333333333C31.679199999999998 24.468266666666665 31.973866666666666 23.957866666666664 31.972266666666663 23.405733333333334C31.97573333333333 22.2232 30.697866666666663 21.480399999999996 29.672 22.068666666666665C29.193066666666667 22.3432 28.8984 22.85373333333333 28.9 23.405733333333334Z" fill="#dabff5" stroke-width="1"></path><path d="M28.9 15.226666666666667C28.9 17.197599999999998 31.0336 18.429466666666666 32.740399999999994 17.444C33.53253333333333 16.986666666666665 34.02053333333333 16.141466666666666 34.02053333333333 15.226666666666667C34.02053333333333 13.255866666666666 31.88693333333333 12.024000000000001 30.180133333333334 13.009466666666665C29.387999999999998 13.4668 28.9 14.312 28.9 15.226666666666667Z" fill="#dabff5" stroke-width="1"></path><path d="M54.97333333333333 38.7536C54.56706666666666 41.29306666666666 53.07706666666667 43.53039999999999 50.89066666666666 44.8844" fill="none" stroke="#45413c" stroke-linecap="round" stroke-linejoin="round" stroke-width="1"></path><path d="M49.86653333333334 47.956799999999994C51.90813333333333 47.648399999999995 53.7444 46.543733333333336 54.97333333333333 44.8844" fill="none" stroke="#45413c" stroke-linecap="round" stroke-linejoin="round" stroke-width="1"></path><path d="M6.923066666666667 21.371333333333332S7.9472 16.250799999999998 11.005733333333334 14.202533333333331" fill="none" stroke="#45413c" stroke-linecap="round" stroke-linejoin="round" stroke-width="1"></path><path d="M4.8748 17.274933333333333C4.3064 19.625999999999998 4.3064 22.0788 4.8748 24.429866666666662" fill="none" stroke="#45413c" stroke-linecap="round" stroke-linejoin="round" stroke-width="1"></path><path d="M56.883199999999995 11.296266666666668C57.09893333333333 10.383866666666666 57.81133333333333 9.671466666666666 58.72373333333333 9.455733333333333L62.41893333333333 8.611466666666665C62.565200000000004 8.584533333333333 62.670533333333324 8.455733333333333 62.66799999999999 8.307066666666666C62.669466666666665 8.161466666666666 62.563066666666664 8.037199999999999 62.41893333333333 8.016399999999999L58.73759999999999 7.1584C57.81653333333333 6.9532 57.09519999999999 6.2372 56.883199999999995 5.317733333333333L56.02506666666666 1.6364C55.999066666666664 1.4953333333333332 55.87799999999999 1.3914666666666666 55.73453333333333 1.3873333333333333C55.58773333333333 1.3902666666666665 55.461866666666666 1.4931999999999999 55.42999999999999 1.6364L54.58586666666666 5.317733333333333C54.36773333333333 6.233866666666666 53.64906666666667 6.9472 52.731333333333325 7.1584L49.03626666666666 8.016399999999999C48.8976 8.043333333333333 48.798399999999994 8.165866666666666 48.80093333333333 8.307066666666666C48.797200000000004 8.451466666666665 48.895466666666664 8.578666666666667 49.03626666666666 8.611466666666665L52.731333333333325 9.455733333333333C53.64173333333333 9.670133333333332 54.35053333333333 10.3844 54.55813333333333 11.2964L55.4992 14.991466666666668C55.532 15.132133333333332 55.6592 15.230533333333334 55.803733333333334 15.226666666666667C55.944799999999994 15.229333333333333 56.06746666666667 15.129999999999999 56.09426666666667 14.991466666666668Z" fill="#ffffff" stroke="#45413c" stroke-linecap="round" stroke-linejoin="round" stroke-width="1"></path><path d="M6.8124 44.358533333333334L9.704799999999999 43.4036C9.7928 43.346666666666664 9.840933333333332 43.2448 9.829333333333333 43.14066666666666C9.833866666666665 43.02613333333333 9.759599999999999 42.92333333333333 9.649466666666665 42.8916L7.269066666666667 42.1028C6.9475999999999996 41.99026666666666 6.6968 41.734399999999994 6.590933333333333 41.410799999999995L5.788266666666666 39.0304C5.7565333333333335 38.92026666666666 5.653733333333333 38.846 5.539199999999999 38.85053333333333C5.422266666666666 38.848933333333335 5.317066666666666 38.92093333333333 5.276133333333333 39.0304L4.487333333333333 41.410799999999995C4.376666666666667 41.736399999999996 4.120933333333333 41.992 3.795333333333333 42.1028L1.5257333333333334 42.8916C1.4129333333333334 42.92226666666666 1.3339999999999999 43.02386666666666 1.3319999999999999 43.14066666666666C1.3323999999999998 43.2612 1.4108 43.36746666666666 1.5257333333333334 43.4036L3.8922666666666665 44.19253333333333C4.220266666666666 44.29933333333333 4.477333333333333 44.556533333333334 4.584266666666666 44.8844L5.373066666666666 47.250933333333336C5.409199999999999 47.36586666666666 5.5156 47.444266666666664 5.636 47.44466666666666C5.752933333333333 47.44266666666667 5.854399999999999 47.36373333333333 5.885066666666667 47.250933333333336Z" fill="#ffffff" stroke="#45413c" stroke-linecap="round" stroke-linejoin="round" stroke-width="1"></path></svg>